<svg height="478pt" viewBox="0 0 478 478.576" width="478pt" xmlns="http://www.w3.org/2000/svg"><path d="m271.183594 302.574219c0-35.34375-28.652344-64-64-64 35.347656 0 64 28.65625 64 64zm0 0" fill="#9bc9ff"/><path d="m271.183594 102.574219c-35.347656 0-64 28.65625-64 64 0-35.34375 28.652344-64 64-64zm0 0" fill="#9bc9ff"/><path d="m271.183594 302.574219v-120c0-8.835938 7.164062-16 16-16h88v24l88-56-88-56v24h-104c-35.347656 0-64 28.65625-64 64v72c35.347656 0 64 28.65625 64 64zm0 0" fill="#ff3051"/><path d="m375.183594 390.574219v24l88-56-88-56v24h-104v64zm0 0" fill="#5eac24"/><path d="m15.183594 270.574219 88 56v-24h88c8.835937 0 16 7.164062 16 16v152h64v-168c0-35.34375-28.652344-64-64-64h-104v-24zm0 0" fill="#ffcd00"/><path d="m271.183594 102.574219c0-35.34375-28.652344-64-64-64h-104v-24l-88 56 88 56v-24h88c8.824218.027343 15.972656 7.175781 16 16v48c0-35.34375 28.652344-64 64-64zm0 0" fill="#2488ff"/><path d="m367.183594 318.574219h-88v-136c0-4.417969 3.582031-8 8-8h80v30.578125l110.894531-70.578125-110.894531-70.574219v30.574219h-88.472656c-4.105469-36.414063-34.882813-63.949219-71.527344-64h-96v-30.574219l-110.894532 70.574219 110.894532 70.578125v-30.578125h80c4.417968 0 8 3.582031 8 8v112h-88v-30.574219l-110.894532 70.574219 110.894532 70.578125v-30.578125h80c4.417968 0 8 3.582031 8 8v160h80v-80h88v30.578125l110.894531-70.578125-110.894531-70.574219zm-152-197.207031v-2.792969c0-13.253907-10.746094-24-24-24h-96v17.425781l-65.105469-41.425781 65.105469-41.421875v17.421875h112c28.015625.035156 51.707031 20.738281 55.496094 48.496093-1.015626.128907-1.992188.355469-3 .515626-1.175782.191406-2.398438.351562-3.527344.597656-1.128906.25-2.304688.578125-3.449219.886718-1.144531.3125-2.289063.570313-3.398437.929688-1.113282.359375-2.207032.800781-3.304688 1.207031-1.097656.410157-2.199219.800781-3.265625 1.257813-1.0625.457031-2.078125.992187-3.117187 1.503906-1.042969.511719-2.113282 1-3.136719 1.597656-1.023438.601563-1.945313 1.175782-2.914063 1.769532-.964844.59375-2.007812 1.199218-2.972656 1.863281-.96875.664062-1.824219 1.359375-2.730469 2.039062-.902343.683594-1.871093 1.378907-2.765625 2.121094-.898437.746094-1.699218 1.535156-2.539062 2.3125s-1.71875 1.527344-2.535156 2.351563c-.816407.824218-1.597657 1.703124-2.328126 2.570312-.726562.863281-1.550781 1.664062-2.269531 2.542969-.074219.054687-.160156.136719-.242187.230469zm56-10.792969h112v-17.421875l65.105468 41.421875-65.105468 41.425781v-17.425781h-96c-13.253906 0-24 10.746093-24 24v74.792969c-.070313-.09375-.167969-.175782-.238282-.269532-.753906-.921875-1.601562-1.777344-2.402343-2.65625-.800781-.882812-1.464844-1.6875-2.246094-2.480468-.785156-.792969-1.761719-1.601563-2.640625-2.449219-.878906-.847657-1.601562-1.519531-2.457031-2.230469-.855469-.714844-1.902344-1.464844-2.871094-2.191406-.96875-.730469-1.734375-1.363282-2.65625-1.984375-.917969-.625-2.046875-1.28125-3.078125-1.914063-1.035156-.632812-1.867188-1.191406-2.839844-1.726562-.976562-.535156-2.167968-1.082032-3.257812-1.601563s-1.992188-1.007812-3.023438-1.457031c-1.03125-.445312-2.273437-.863281-3.417968-1.285156-1.144532-.425782-2.101563-.800782-3.199219-1.167969-1.09375-.367187-2.351563-.632813-3.535157-.945313-1.183593-.3125-2.214843-.625-3.359374-.863281-1.144532-.242187-2.402344-.402343-3.601563-.59375-1.070313-.167969-2.128906-.398437-3.199219-.519531v-64.457031c.035156-30.921875 25.101563-55.976563 56.023438-56zm-8 352h-48v-144c0-13.253907-10.746094-24-24-24h-96v17.425781l-65.105469-41.425781 65.105469-41.421875v17.421875h112c30.914062.035156 55.964844 25.089843 56 56zm120-145.421875 65.105468 41.421875-65.105468 41.425781v-17.425781h-104v-48h104zm0 0" fill="#231f20"/></svg>