<svg height="480pt" viewBox="-56 0 480 480" width="480pt" xmlns="http://www.w3.org/2000/svg"><path d="m216 272h-64l-40 8 32 192h80l32-192zm0 0" fill="#e6e7e8"/><path d="m160 328 24-32-31.96875-23.976562-40.03125 7.976562" fill="#d80027"/><path d="m208 328-24-32 31.96875-23.976562 40.03125 7.976562" fill="#e13957"/><path d="m248 112c-18.542969.007812-35.425781-10.679688-43.359375-27.441406 0 0-.078125 0 0-.078125-3.148437 9.335937-8.40625 17.820312-15.359375 24.800781-1.679688 1.648438-3.441406 3.210938-5.28125 4.679688v126.039062c2.640625-.011719 5.28125-.167969 7.90625-.472656.605469-.0625 1.199219-.175782 1.804688-.253906 2.113281-.289063 4.203124-.648438 6.242187-1.121094l1.328125-.320313c5.046875-1.257812 9.945312-3.050781 14.609375-5.351562h.109375c21.917969-10.886719 36.808594-32.160157 39.527344-56.480469.308594-2.65625.464844-5.328125.472656-8v-56zm0 0" fill="#ede8e1"/><path d="m152 128h-40v40c.007812 2.671875.167969 5.34375.472656 8 2.714844 24.328125 17.605469 45.609375 39.527344 56.496094l.066406.046875c4.675782 2.296875 9.589844 4.074219 14.65625 5.304687l1.328125.320313c2.046875.464843 4.125.800781 6.238281 1.121093.609376.078126 1.199219.191407 1.808594.253907 2.625.296875 5.261719.449219 7.902344.457031v-126.039062c-8.996094 7.816406-20.15625 12.710937-32 14.039062zm0 0" fill="#ddd2c3"/><path d="m176.097656 239.527344c-.609375-.0625-1.199218-.175782-1.808594-.253906-2.113281-.289063-4.191406-.65625-6.238281-1.121094l-1.328125-.320313c-5.066406-1.230469-9.980468-3.007812-14.65625-5.304687h-.066406v39.472656l32 24v-56c-2.640625-.011719-5.277344-.167969-7.902344-.472656zm0 0" fill="#d9ccbc"/><path d="m191.90625 239.527344c.605469-.0625 1.199219-.175782 1.804688-.253906 2.113281-.289063 4.195312-.65625 6.242187-1.121094l1.328125-.320313c5.0625-1.230469 9.976562-3.007812 14.65625-5.304687h.0625v39.472656l-32 24v-56c2.640625-.011719 5.28125-.167969 7.90625-.472656zm0 0" fill="#e1d7ca"/><path d="m184 296 .082031-.0625-.082031-.058594zm0 0" fill="#ebe5dd"/><path d="m184 113.960938v-105.960938h-16c-44.183594 0-80 35.816406-80 80v24c.027344 8.824219 7.175781 15.972656 16 16h48c11.84375-1.328125 23.003906-6.222656 32-14.039062zm0 0" fill="#ffa733"/><path d="m189.28125 109.28125c6.953125-6.980469 12.210938-15.464844 15.359375-24.800781-.078125.078125 0 .078125 0 .078125 7.933594 16.761718 24.816406 27.449218 43.359375 27.441406h8v16h8c8.828125-.027344 15.972656-7.175781 16-16v-24c0-44.183594-35.816406-80-80-80h-16v105.960938c1.839844-1.46875 3.601562-3.03125 5.28125-4.679688zm0 0" fill="#fbb040"/><path d="m255.527344 176h.472656c13.253906 0 24-10.746094 24-24s-10.746094-24-24-24v40c-.007812 2.671875-.164062 5.34375-.472656 8zm0 0" fill="#b39a7c"/><path d="m168 338.457031v.023438l-7.839844 133.519531h23.839844v-112zm0 0" fill="#d80027"/><path d="m200 338.457031v.023438l7.839844 133.519531h-23.839844v-112zm0 0" fill="#e13957"/><path d="m112 280-4.800781 1.105469c-58.066407 13.40625-99.199219 65.121093-99.199219 124.71875v66.175781h136zm0 0" fill="#004fac"/><path d="m256 280 4.800781 1.105469c58.070313 13.40625 99.199219 65.121093 99.199219 124.71875v66.175781h-136zm0 0" fill="#004fac"/><path d="m112 128c-13.253906 0-24 10.746094-24 24s10.746094 24 24 24h.472656c-.304687-2.65625-.464844-5.328125-.472656-8zm0 0" fill="#b39a7c"/><path d="m184 296-24 32 24 32zm0 0" fill="#be1e2d"/><path d="m184 296 24 32-24 32zm0 0" fill="#dc1c3f"/><path d="m262.578125 273.304688-38.578125-7.839844v-28.289063c19.992188-11.566406 34.019531-31.195312 38.488281-53.855469 11.324219-2.304687 20.511719-10.554687 24.011719-21.566406 3.503906-11.007812.769531-23.050781-7.140625-31.472656 5.453125-4.507812 8.617187-11.207031 8.640625-18.28125v-24c-.054688-48.578125-39.421875-87.9414062-88-88h-32c-48.578125.0585938-87.941406 39.421875-88 88v24c.023438 7.074219 3.191406 13.773438 8.640625 18.28125-7.871094 8.433594-10.582031 20.460938-7.082031 31.457031 3.496094 10.992188 12.65625 19.246094 23.953125 21.582031 4.472656 22.660157 18.5 42.289063 38.488281 53.855469v28.265625l-38.574219 7.863282c-61.839843 14.039062-105.652343 69.113281-105.425781 132.527343v66.167969c0 4.417969 3.582031 8 8 8h352c4.417969 0 8-3.582031 8-8v-66.167969c.230469-63.414062-43.582031-118.488281-105.421875-132.527343zm-112.496094 7.246093 22.71875 17.050781-13.671875 18.222657-30.839844-30.839844zm67.855469 0 21.839844 4.371094-30.914063 30.910156-13.664062-18.230469zm-58.25 60.371094-7.230469 123.078125h-1.679687l-26.703125-160.617188zm10.3125-12.921875 14-18.664062 14 18.664062-14 18.664062zm73.929688-24.617188-26.703126 160.617188h-1.683593l-7.148438-123.199219zm23.375-140.078124c-.984376.964843-2.097657 1.792968-3.304688 2.464843v-27.546875c4.308594 2.464844 7.21875 6.800782 7.867188 11.722656.648437 4.921876-1.039063 9.863282-4.5625 13.359376zm-171.304688-75.304688c.046875-39.746094 32.253906-71.957031 72-72h32c39.746094.042969 71.957031 32.253906 72 72v24c0 4.417969-3.582031 8-8 8v-8c0-4.417969-3.582031-8-8-8h-8c-15.207031-.035156-29.085938-8.667969-35.847656-22.289062-1.183594-3.226563-4.292969-5.335938-7.726563-5.242188-3.433593.089844-6.425781 2.367188-7.433593 5.652344-2.769532 8.074218-7.332032 15.417968-13.34375 21.480468-8.460938 8.792969-19.582032 14.554688-31.648438 16.398438h-48c-4.417969 0-8-3.582031-8-8zm0 64c.019531-5.691406 3.066406-10.941406 8-13.777344v27.554688c-4.980469-2.789063-8.046875-8.070313-8-13.777344zm24 16v-32h32c16.332031-1.796875 31.519531-9.246094 42.9375-21.0625 4.214844-4.226562 7.882812-8.960938 10.917969-14.097656 10.648437 12.140625 26 19.117187 42.144531 19.160156v48c0 35.347656-28.652344 64-64 64-35.34375 0-64-28.652344-64-64zm64 80c8.140625 0 16.234375-1.242188 24-3.6875v23.6875l-24 18-24-18v-23.6875c7.765625 2.445312 15.859375 3.6875 24 3.6875zm-168 157.832031c-.179688-54.609375 36.71875-102.378906 89.601562-116l28.960938 174.167969h-54.5625v-72c0-4.417969-3.582031-8-8-8s-8 3.582031-8 8v72h-48zm152.488281 58.167969 6.046875-103.289062 3.066406 4.089843c1.511719 2.011719 3.882813 3.199219 6.398438 3.199219 2.519531 0 4.890625-1.1875 6.402344-3.199219l3.117187-4.167969 6 103.367188zm183.511719 0h-48v-72c0-4.417969-3.582031-8-8-8s-8 3.582031-8 8v72h-54.558594l28.960938-174.160156c52.878906 13.621094 89.777344 61.386718 89.597656 115.992187zm0 0" fill="#231f20"/></svg>