<?xml version="1.0" encoding="iso-8859-1"?>
<!-- Generator: Adobe Illustrator 19.0.0, SVG Export Plug-In . SVG Version: 6.00 Build 0)  -->
<svg version="1.1" id="Layer_1" xmlns="http://www.w3.org/2000/svg" xmlns:xlink="http://www.w3.org/1999/xlink" x="0px" y="0px"
	 viewBox="0 0 512 512" style="enable-background:new 0 0 512 512;" xml:space="preserve">
<rect x="7.344" y="398.66" style="fill:#F5F7FA;" width="104.66" height="98.67"/>
<polygon style="fill:#5D9CEC;" points="120.672,503.484 121.344,390.125 502.703,392.531 501.984,505.875 "/>
<polygon style="fill:#48CFAD;" points="135.578,482.125 92.484,377.281 445.25,232.406 488.312,337.25 "/>
<polygon style="fill:#A0D468;" points="144.047,448 64.016,367.719 334.156,98.531 414.156,178.828 "/>
<polygon style="fill:#FFCE54;" points="142.406,414.688 36.5,374.344 172.266,17.969 278.172,58.328 "/>
<rect x="7.344" y="10.656" style="fill:#ED5564;" width="113.33" height="381.34"/>
<path d="M64,437.328c-5.891,0.016-10.672,4.781-10.656,10.672c0,5.891,4.766,10.656,10.656,10.656S74.672,453.891,74.672,448
	S69.891,437.344,64,437.328z"/>
<path d="M501.344,384H386.719l105.828-43.828c5.438-2.266,8.016-8.5,5.766-13.938l-40.828-98.547
	c-1.688-4.109-5.672-6.594-9.844-6.594c-1.375,0-2.75,0.266-4.078,0.812l-108.594,44.984l83.641-83.641
	c4.156-4.156,4.156-10.906,0-15.078l-75.438-75.42c-2.078-2.094-4.812-3.125-7.531-3.125c-2.734,0-5.469,1.031-7.547,3.125
	l-81.375,81.359l43.766-105.672c2.266-5.438-0.328-11.672-5.766-13.922l-98.547-40.828c-1.328-0.547-2.719-0.812-4.078-0.812
	c-4.188,0-8.156,2.484-9.859,6.594L128,126.25V10.656C128,4.781,123.234,0,117.344,0H10.672C4.781,0,0,4.781,0,10.656v490.688l0,0
	C0,507.219,4.781,512,10.672,512h490.672c5.891,0,10.656-4.781,10.656-10.672V394.656C512,388.781,507.234,384,501.344,384z
	 M441.859,245.703l32.656,78.828l-336.64,139.453l157.672-157.672L441.859,245.703z M335.641,115.375l60.328,60.344L140.062,431.625
	l85.328-206L335.641,115.375z M187.859,37.484l78.844,32.656L128,404.984V393.14V182L187.859,37.484z M106.672,21.344V384H80.109
	H21.344V21.344H106.672z M21.344,490.656v-85.312h85.328v85.312H21.344z M490.672,490.656H129.203l206.016-85.312h155.453V490.656z"
	/>
<g>
</g>
<g>
</g>
<g>
</g>
<g>
</g>
<g>
</g>
<g>
</g>
<g>
</g>
<g>
</g>
<g>
</g>
<g>
</g>
<g>
</g>
<g>
</g>
<g>
</g>
<g>
</g>
<g>
</g>
</svg>
