<?xml version="1.0" encoding="iso-8859-1"?>
<!-- Generator: Adobe Illustrator 19.0.0, SVG Export Plug-In . SVG Version: 6.00 Build 0)  -->
<svg version="1.1" id="Capa_1" xmlns="http://www.w3.org/2000/svg" xmlns:xlink="http://www.w3.org/1999/xlink" x="0px" y="0px"
	 viewBox="0 0 480 480" style="enable-background:new 0 0 480 480;" xml:space="preserve">
<path style="fill:#FF9811;" d="M304,24h-48c-0.065-8.809-7.191-15.935-16-16c-8.826,0.026-15.974,7.174-16,16h-48
	c-8.826,0.026-15.974,7.174-16,16v7.92C82.463,80.228,31.968,156.002,32,240v69.44c-5.215,10.778-7.949,22.587-8,34.56
	c0,70.72,96.72,128,216,128s216-57.28,216-128c-0.051-11.973-2.785-23.782-8-34.56V240c0.032-83.999-50.463-159.773-128-192.08V40
	C319.974,31.175,312.826,24.027,304,24z M375.88,344.088c-0.04-0.104-0.096-0.232-0.16-0.36
	C375.784,343.856,375.84,343.984,375.88,344.088C371.8,356.344,325.64,392,240,392s-131.8-35.656-135.88-47.912
	c0-0.104,0.096-0.232,0.16-0.36c-0.064,0.128-0.12,0.256-0.16,0.36C108.2,356.344,154.4,392,240,392S371.8,356.344,375.88,344.088z"
	/>
<g>
	<path style="fill:#231F20;" d="M456,307.68V240c0.155-85.316-50.034-162.692-128-197.336V40c0-13.255-10.745-24-24-24h-41.448
		c-1.138-3.341-3.036-6.372-5.544-8.856C252.551,2.542,246.407-0.038,240,0c-10.134,0.042-19.15,6.445-22.528,16H176
		c-13.255,0-24,10.745-24,24v2.664C74.034,77.308,23.845,154.684,24,240v67.68c-5.232,11.396-7.96,23.781-8,36.32
		c0,74.992,100.488,136,224,136s224-61.008,224-136C463.96,331.461,461.232,319.076,456,307.68z M240,464
		c-114.688,0-208-53.832-208-120c0.061-8.898,1.79-17.706,5.096-25.968c1.818-1.478,2.883-3.689,2.904-6.032v-72
		C39.882,163.636,83.37,93.905,152,60.416V200c0,4.418,3.582,8,8,8s8-3.582,8-8V40c0-4.418,3.582-8,8-8h40v200c0,4.418,3.582,8,8,8
		s8-3.582,8-8V24c0-4.418,3.582-8,8-8c2.155-0.003,4.215,0.882,5.696,2.448c1.493,1.459,2.325,3.465,2.304,5.552v208
		c0,4.418,3.582,8,8,8s8-3.582,8-8V32h40c4.418,0,8,3.582,8,8v160c0,4.418,3.582,8,8,8s8-3.582,8-8V60.416
		C396.63,93.905,440.118,163.636,440,240v69.44c0.006,1.187,0.28,2.357,0.8,3.424c4.691,9.712,7.151,20.35,7.2,31.136
		C448,410.168,354.688,464,240,464z"/>
	<path style="fill:#231F20;" d="M240,400c-89.512,0-138.232-37.672-143.472-53.384c-0.615-1.847-0.535-3.855,0.224-5.648
		c0.064-0.152,0.296-0.672,0.376-0.8c1.973-3.953,6.777-5.559,10.73-3.586c2.338,1.167,3.959,3.402,4.342,5.986
		C117.664,351.752,159.32,384,240,384c82.44,0,124.144-33.672,128.112-42c0.552-2.357,2.152-4.332,4.344-5.36
		c3.844-1.866,8.474-0.302,10.4,3.512c0.08,0.144,0.312,0.664,0.376,0.8c0.759,1.793,0.839,3.801,0.224,5.648
		C378.232,362.328,329.512,400,240,400z"/>
</g>
<g>
</g>
<g>
</g>
<g>
</g>
<g>
</g>
<g>
</g>
<g>
</g>
<g>
</g>
<g>
</g>
<g>
</g>
<g>
</g>
<g>
</g>
<g>
</g>
<g>
</g>
<g>
</g>
<g>
</g>
</svg>
