<svg id="Layer_1" data-name="Layer 1" xmlns="http://www.w3.org/2000/svg" viewBox="0 0 78 78"><defs><style>.cls-1{fill:#231f20;}.cls-2{fill:#010101;}</style></defs><title>Anti Slip_StroefArtboard 1</title><path class="cls-1" d="M0,0V78H78V0ZM74.36,59.69l-12.08-.33,4.05,11.38-9.58-7.37L53.35,74.91,49.94,63.37l-9.49,7.32L44.5,59.31l-12.08.33,10-6.83-.22-.15H3.59V3.59H74.41V46h0v6.71H64.67l-.22.15Z"/><path class="cls-2" d="M58.4,48.9l-4.92-3.73-6.56.27L45,46.54l9.67,7.32a3.12,3.12,0,1,0,4-4.78Z"/><path class="cls-2" d="M20.09,23.68a5.37,5.37,0,1,1-5.37-5.37,5.37,5.37,0,0,1,5.37,5.37Z"/><path class="cls-2" d="M33.47,50.33,46.29,43l11-.45a3.12,3.12,0,0,0-.13-6.22H57l-11.72.47a3.12,3.12,0,0,0-1.42.41L30.44,44.94l7.33-6.67-4.46-4.76-8.56,1.36,9.94-4.1a2.56,2.56,0,0,0,1.53-1.92l1.91-10.4A2.61,2.61,0,0,0,33,17.51l-1.62,8.82-9.06,3.85L27.67,26l1.18-5.31a2.56,2.56,0,0,0-.26-1.81L22.72,8.23a2.6,2.6,0,1,0-4.55,2.5l5.4,9.82L22.28,26.1c-.38.24-.08,0-5.24,4.82a3.63,3.63,0,0,0-.17,5.13L29.69,49.76h0a3.12,3.12,0,0,0,3.73.49Z"/></svg>