<svg id="Layer_1" data-name="Layer 1" xmlns="http://www.w3.org/2000/svg" viewBox="0 0 78 78"><defs><style>.cls-1{fill:#231f20;}.cls-2{fill:#010202;}</style></defs><title>DecoratiefArtboard 1</title><path class="cls-1" d="M0,0V78H78V0ZM74.36,3.59V52.71H3.59V3.59Z"/><path class="cls-2" d="M18.63,32.9a2.73,2.73,0,1,0,2.73-2.73A2.73,2.73,0,0,0,18.63,32.9Zm3.85,0a1.13,1.13,0,1,1-1.13-1.13,1.1,1.1,0,0,1,1.13,1.08S22.47,32.88,22.47,32.9Z"/><path class="cls-2" d="M33.23,20.32A2.73,2.73,0,1,0,36,17.59,2.73,2.73,0,0,0,33.23,20.32Zm3.77,0a1.13,1.13,0,1,1-1.13-1.13A1.15,1.15,0,0,1,37,20.32Z"/><path class="cls-2" d="M50.08,46.67a2.71,2.71,0,1,0,0-.05S50.08,46.65,50.08,46.67Zm3.85,0a1.13,1.13,0,1,1-1.13-1.13,1.1,1.1,0,0,1,1.14,1.06s0,0,0,.07Z"/><path class="cls-2" d="M66.37,44.56a2.73,2.73,0,1,0,2.73,2.73A2.73,2.73,0,0,0,66.37,44.56Zm0,3.85a1.13,1.13,0,1,1,1.13-1.13,1.15,1.15,0,0,1-1.13,1.14Z"/><path class="cls-2" d="M42.94,14.87a2.71,2.71,0,1,0-.05,0Zm0-3.85a1.13,1.13,0,1,1-1.13,1.13A1.1,1.1,0,0,1,42.87,11h.07Z"/><path class="cls-2" d="M12.87,19a2.73,2.73,0,1,0-2.73,2.73A2.73,2.73,0,0,0,12.87,19ZM9,19a1.13,1.13,0,1,1,1.13,1.13A1.1,1.1,0,0,1,9,19.05S9,19,9,19Z"/><path class="cls-2" d="M39.95,49.17H40a.78.78,0,0,0,.64-.56l2.65-7.95,8.1-2.33a.78.78,0,0,0,.56-.64.77.77,0,0,0-.32-.81l-6.74-5,.32-8.42a.85.85,0,0,0-.4-.72.73.73,0,0,0-.88.08l-6.77,4.94-7.95-2.88a.87.87,0,0,0-.81.17.82.82,0,0,0-.24.81l2.49,8-5.22,6.67a.74.74,0,0,0-.08.81.92.92,0,0,0,.72.49l8.42.08,4.73,7A1,1,0,0,0,39.95,49.17Zm-4.9-8.91-7.22-.08,4.41-5.71a.82.82,0,0,0,.17-.72l-2.17-6.82L37,29.42a.76.76,0,0,0,.72-.08l5.86-4.18-.24,7.22a.73.73,0,0,0,.32.64l5.78,4.26-6.91,2a.85.85,0,0,0-.56.49l-2.33,6.82-4-5.94a.6.6,0,0,0-.5-.42Z"/><path class="cls-2" d="M70.87,28.44l-4.9.49-3.13-3.85a.73.73,0,0,0-.81-.24.68.68,0,0,0-.56.56l-1.13,4.82-4.58,1.85a.67.67,0,0,0-.49.64.85.85,0,0,0,.4.72L59.94,36l.32,4.9a.92.92,0,0,0,.49.72.49.49,0,0,0,.32.08,1.49,1.49,0,0,0,.56-.17l3.69-3.21,4.82,1.21a.73.73,0,0,0,.81-.24,1,1,0,0,0,.17-.81l-1.92-4.58,2.65-4.18a.87.87,0,0,0,0-.88A1.91,1.91,0,0,0,70.87,28.44Zm-3.45,4.9a.78.78,0,0,0-.08.72l1.45,3.45-3.62-1a.77.77,0,0,0-.72.17l-2.81,2.41-.24-3.69a.82.82,0,0,0-.4-.64l-3.21-1.92,3.45-1.36a.85.85,0,0,0,.49-.56l.81-3.62L65,30.21a.78.78,0,0,0,.72.32l3.69-.32Z"/><path class="cls-2" d="M64.31,9.41a1,1,0,0,0-.72-.4l-4,.32L57,6.21A.73.73,0,0,0,56.21,6a.68.68,0,0,0-.56.56l-.88,3.94-3.85,1.6a.67.67,0,0,0-.49.64.85.85,0,0,0,.4.72l3.45,2.09.24,4a.92.92,0,0,0,.49.72.49.49,0,0,0,.32.08,1.49,1.49,0,0,0,.56-.17l3.05-2.65,3.94,1a.73.73,0,0,0,.81-.24,1,1,0,0,0,.17-.81l-1.6-3.69,2.17-3.37A1.42,1.42,0,0,0,64.31,9.41Zm-3.85,4.5,1.13,2.56-2.73-.64a.77.77,0,0,0-.72.17L56,17.85,55.81,15a.82.82,0,0,0-.4-.64L53,12.95l2.65-1a.85.85,0,0,0,.49-.56l.64-2.73,1.77,2.17a.78.78,0,0,0,.72.32l2.81-.24-1.62,2.4a.6.6,0,0,0,0,.64Z"/><path class="cls-2" d="M6.62,42.29l4.26,2.56.32,4.9a.92.92,0,0,0,.49.72.49.49,0,0,0,.32.08,1.49,1.49,0,0,0,.56-.17l3.69-3.21,4.82,1.21a.73.73,0,0,0,.81-.24,1,1,0,0,0,.17-.81l-1.92-4.58,2.65-4.18a.87.87,0,0,0,0-.88,1,1,0,0,0-.72-.4l-4.9.4L14,33.92a.73.73,0,0,0-.81-.24.68.68,0,0,0-.56.56l-1.13,4.82L7,40.91a.67.67,0,0,0-.49.64A.47.47,0,0,0,6.62,42.29Zm5.71-1.92a.85.85,0,0,0,.49-.56l.81-3.62L16,39.08a.78.78,0,0,0,.72.32l3.69-.32-2,3.05a1,1,0,0,0-.08.81l1.45,3.45-3.62-1a.77.77,0,0,0-.72.17L12.65,48l-.24-3.69a.82.82,0,0,0-.4-.64L8.81,41.74Z"/><path class="cls-2" d="M17.21,14.31,15,18.72a.88.88,0,0,0,.08.88.94.94,0,0,0,.81.32l4.82-1,3.53,3.45a.73.73,0,0,0,.56.24.3.3,0,0,0,.24-.08.78.78,0,0,0,.56-.64l.64-4.9,4.41-2.24a.85.85,0,0,0,.4-.72.77.77,0,0,0-.49-.72l-4.41-2.17-.81-4.9a.78.78,0,0,0-.56-.64.73.73,0,0,0-.81.24L20.56,9.51l-4.9-.72a.77.77,0,0,0-.81.32,1.1,1.1,0,0,0-.08.88Zm3.53-3.13a1.12,1.12,0,0,0,.72-.24L24,8.21l.64,3.69a.85.85,0,0,0,.49.56l3.37,1.6-3.29,1.68a.72.72,0,0,0-.4.64l-.49,3.69-2.65-2.65a.73.73,0,0,0-.56-.24h-.17l-3.69.72,1.68-3.29a1.12,1.12,0,0,0,0-.72l-1.77-3.29Z"/></svg>