<?xml version="1.0" encoding="utf-8"?>
<!-- Generator: Adobe Illustrator 16.0.0, SVG Export Plug-In . SVG Version: 6.00 Build 0)  -->
<!DOCTYPE svg PUBLIC "-//W3C//DTD SVG 1.1//EN" "http://www.w3.org/Graphics/SVG/1.1/DTD/svg11.dtd">
<svg version="1.1" id="Laag_1" xmlns="http://www.w3.org/2000/svg" xmlns:xlink="http://www.w3.org/1999/xlink" x="0px" y="0px"
	 width="77px" height="78px" viewBox="0 0 77 78" enable-background="new 0 0 77 78" xml:space="preserve">
<g>
	<path d="M0,0.569v76.861h76.861V0.569H0z M73.323,52.506h-39.76c-1.819,3.955-5.806,6.706-10.443,6.706s-8.624-2.751-10.443-6.706
		H3.537V4.106h69.786V52.506z"/>
	<g>
		<path d="M27.433,17.817v23.25c-1.224-0.749-2.653-1.19-4.19-1.19c-4.445,0-8.048,3.602-8.048,8.042
			c0,4.444,3.603,8.049,8.048,8.049c4.439,0,8.042-3.6,8.042-8.044V26.246l20.469-5.883v13.761
			c-1.224-0.748-2.652-1.189-4.191-1.189c-4.444,0-8.047,3.603-8.047,8.042c0,4.445,3.603,8.048,8.047,8.048
			c4.187,0,7.624-3.203,8.006-7.29h0.037V9.719L27.433,17.817z M27.433,17.817"/>
	</g>
</g>
</svg>
