<svg id="Layer_1" data-name="Layer 1" xmlns="http://www.w3.org/2000/svg" viewBox="0 0 78 78"><defs><style>.cls-1{fill:#231f20;}.cls-2{fill:#010101;}</style></defs><title>GlansArtboard 1</title><path class="cls-1" d="M0,0V78H78V0ZM74.36,3.59V52.74H3.59V3.59Z"/><path class="cls-2" d="M18.58,24.73l1.17,3.18a.31.31,0,0,0,.58,0l1.18-3.18a9.37,9.37,0,0,1,5.55-5.55L30.23,18a.31.31,0,0,0,0-.58l-3.18-1.17a9.37,9.37,0,0,1-5.55-5.55L20.32,7.53a.31.31,0,0,0-.58,0l-1.17,3.18A9.38,9.38,0,0,1,13,16.26L9.85,17.42a.31.31,0,0,0,0,.58L13,19.18A9.37,9.37,0,0,1,18.58,24.73Z"/><path class="cls-2" d="M47.77,37.92l-3.18-1.17A9.38,9.38,0,0,1,39,31.21L37.87,28a.31.31,0,0,0-.58,0l-1.18,3.18a9.37,9.37,0,0,1-5.55,5.55l-3.18,1.17a.31.31,0,0,0,0,.58l3.18,1.18a9.37,9.37,0,0,1,5.55,5.55l1.18,3.18a.31.31,0,0,0,.58,0L39,45.23a9.37,9.37,0,0,1,5.55-5.55l3.18-1.18a.31.31,0,0,0,0-.58Z"/><path class="cls-2" d="M66.44,28.38l-2.17-.79a6.41,6.41,0,0,1-3.77-3.77l-.79-2.17a.21.21,0,0,0-.38,0l-.79,2.17a6.41,6.41,0,0,1-3.77,3.77l-2.17.79a.21.21,0,0,0,0,.38l2.17.79a6.41,6.41,0,0,1,3.77,3.77l.79,2.17a.21.21,0,0,0,.38,0l.79-2.17a6.41,6.41,0,0,1,3.77-3.77l2.17-.79a.21.21,0,0,0,0-.38Z"/><path class="cls-2" d="M69.82,44l-1.51-.55a4.44,4.44,0,0,1-2.63-2.63l-.55-1.51a.16.16,0,0,0-.28,0l-.55,1.51a4.45,4.45,0,0,1-2.63,2.63L60.15,44a.14.14,0,0,0,0,.27l1.51.55a4.45,4.45,0,0,1,2.63,2.63L64.85,49a.14.14,0,0,0,.27,0l.55-1.51a4.45,4.45,0,0,1,2.63-2.63l1.51-.55a.14.14,0,0,0,0-.27Z"/><path class="cls-2" d="M47,12.28l-1.51-.55A4.45,4.45,0,0,1,42.86,9.1l-.55-1.51a.16.16,0,0,0-.28,0L41.47,9.1a4.45,4.45,0,0,1-2.63,2.63l-1.51.55a.14.14,0,0,0,0,.27l1.51.55a4.45,4.45,0,0,1,2.63,2.63L42,17.24a.16.16,0,0,0,.28,0l.55-1.51a4.45,4.45,0,0,1,2.63-2.63L47,12.55a.14.14,0,0,0,0-.27Z"/><path class="cls-2" d="M22.59,44l-1.9-.71a5.59,5.59,0,0,1-3.31-3.31l-.71-1.9a.18.18,0,0,0-.35,0l-.71,1.9a5.59,5.59,0,0,1-3.31,3.31l-1.9.71a.18.18,0,0,0,0,.35l1.9.71a5.59,5.59,0,0,1,3.31,3.31l.71,1.9a.18.18,0,0,0,.35,0l.71-1.9A5.59,5.59,0,0,1,20.69,45l1.9-.71a.18.18,0,0,0,0-.35Z"/></svg>