<svg id="Layer_1" data-name="Layer 1" xmlns="http://www.w3.org/2000/svg" viewBox="0 0 78 78"><defs><style>.cls-1{fill:#231f20;}.cls-2{fill:#fff;}.cls-3{fill:#010101;}</style></defs><title>Snelle LeveringArtboard 1</title><path class="cls-1" d="M0,0V78H78V0ZM74.38,52.71H72.6A14.92,14.92,0,0,1,49.79,63,27.45,27.45,0,0,1,15.56,52.71H3.62V3.59H74.44Z"/><path class="cls-2" d="M37.43,23.32V34.69c0,.59,0,1.14-.63,1.45-.14.06-.23.26-.35.41A3.18,3.18,0,0,0,37,41a3.23,3.23,0,0,0,4.54-.56l0,0A3.18,3.18,0,0,0,41,36a.94.94,0,0,1-.41-.86V23.32Z"/><path class="cls-3" d="M37.31,62.19c-.94-.14-1.87-.24-2.79-.42A23.85,23.85,0,0,1,20.7,53.82,23.26,23.26,0,0,1,15,41.47a23.91,23.91,0,0,1,4.94-18.6,24.36,24.36,0,0,1,4.65-4.51l.46-.36-2.19-3.85L26.6,12l2.17,3.76c1.15-.41,2.27-.87,3.44-1.21s2.36-.56,3.59-.85V10.35H33.71V7.14H44.39v3.17H42.3v3.38c1.21.28,2.4.5,3.56.83s2.26.78,3.45,1.21L51.49,12l3.73,2.15L53,18A24.44,24.44,0,0,1,63.3,36.31a15.87,15.87,0,0,0-6.56-.92A17.72,17.72,0,0,0,47,21.94a17,17,0,0,0-13.09-1.08,17.85,17.85,0,0,0,9.86,34.29,15.63,15.63,0,0,0,3.44,5.65A23.08,23.08,0,0,1,42.31,62l-1.64.22Z"/><path class="cls-3" d="M56.66,62.19l-1.76-.41a11.81,11.81,0,1,1,8.91-1.14,11.28,11.28,0,0,1-4.23,1.45,2,2,0,0,0-.35.12ZM51.08,51.94l4.56,4.78,8.72-8.54-2.22-2.27-6.58,6.41-2.31-2.49Z"/><path class="cls-3" d="M37.43,23.32h3.22V35.12a.94.94,0,0,0,.41.86,3.18,3.18,0,0,1,.55,4.45,3.23,3.23,0,0,1-4.53.59l0,0a3.18,3.18,0,0,1-.58-4.45c.1-.14.19-.33.35-.41.64-.31.63-.86.63-1.45V23.95Z"/><path class="cls-2" d="M51.06,51.92l2.18-2.09,2.31,2.49,6.58-6.41,2.22,2.27-8.72,8.54Z"/></svg>