<svg height="512" viewBox="0 0 64 64" width="512" xmlns="http://www.w3.org/2000/svg"><g id="Circular_saw" data-name="Circular saw"><path d="m27 20h12a12 12 0 0 1 12 12v14a0 0 0 0 1 0 0h-24a0 0 0 0 1 0 0v-26a0 0 0 0 1 0 0z" fill="#ffb655"/><path d="m30 41v-21h-3v26h22v-3h-17a2 2 0 0 1 -2-2z" fill="#ff9811"/><path d="m3 51h58v10h-58z" fill="#c49a6c"/><circle cx="47" cy="46" fill="#a7a9ac" r="11"/><path d="m27 20h-18a2 2 0 0 0 -2 2v2h20z" fill="#ff5023"/><path d="m19 30a2 2 0 0 1 2-2h6v-4h-8a6 6 0 0 0 -6 6v8a6 6 0 0 0 6 6h8v-4h-6a2 2 0 0 1 -2-2z" fill="#ffcd00"/><path d="m24 28h-3a2 2 0 0 0 -2 2v4h3z" fill="#ff5023"/><path d="m47 32a14.034 14.034 0 0 0 -13.68 11 14.14 14.14 0 0 0 -.32 3h6a8 8 0 0 1 16 0h6a14 14 0 0 0 -14-14z" fill="#ff9811"/><path d="m33.32 45a13.994 13.994 0 0 1 27.521 1h.159a14 14 0 1 0 -28 0h.158c.048-.335.091-.672.162-1z" fill="#ee8700"/><path d="m47 43a4 4 0 1 0 4 4 4 4 0 0 0 -4-4zm0 5a1 1 0 1 1 1-1 1 1 0 0 1 -1 1z" fill="#58595b"/><circle cx="47" cy="47" fill="#ffb655" r="1"/><path d="m61 62h-58a1 1 0 0 1 0-2h58a1 1 0 0 1 0 2z"/><path d="m47 52a5 5 0 1 1 5-5 5.006 5.006 0 0 1 -5 5zm0-8a3 3 0 1 0 3 3 3 3 0 0 0 -3-3z"/><path d="m47 49a2 2 0 1 1 2-2 2 2 0 0 1 -2 2z"/><path d="m57.369 52h3.631a1 1 0 0 0 0-2h-2.706a11.863 11.863 0 0 0 .655-3h2.051a1 1 0 0 0 1-1 15.013 15.013 0 0 0 -10.006-14.127 13.012 13.012 0 0 0 -12.994-12.873h-30a3 3 0 0 0 -3 3v2a1 1 0 0 0 1 1h7.11a6.977 6.977 0 0 0 -2.11 5v8a7.008 7.008 0 0 0 7 7h7v1a1 1 0 0 0 1 1h8.051a11.863 11.863 0 0 0 .655 3h-32.706a1 1 0 0 0 0 2h33.631a12.1 12.1 0 0 0 3.8 4h-7.431a1 1 0 0 0 0 2h28a1 1 0 0 0 0-2h-7.43a12.1 12.1 0 0 0 3.799-4zm-31.369-13h-5a1 1 0 0 1 -1-1v-3h2a1 1 0 0 0 .949-.684l1.772-5.316h1.279zm-6-6v-3a1 1 0 0 1 1-1h1.612l-1.333 4zm6-6h-5a3 3 0 0 0 -3 3v8a3 3 0 0 0 3 3h5v2h-7a5 5 0 0 1 -4.576-3h.576a1 1 0 0 0 0-2h-1v-1h1a1 1 0 0 0 0-2h-1v-1h1a1 1 0 0 0 0-2h-1v-1h1a1 1 0 0 0 0-2h-.9a5.009 5.009 0 0 1 4.9-4h7zm0-4h-18v-1a1 1 0 0 1 1-1h17zm6.053 22h-4.053v-24h2v5a1 1 0 0 0 2 0v-5h2v5a1 1 0 0 0 2 0v-5h2v5a1 1 0 0 0 2 0v-4.949a11.006 11.006 0 0 1 9.966 10.249 15.016 15.016 0 0 0 -2.966-.3 15.033 15.033 0 0 0 -14.657 11.789 15.168 15.168 0 0 0 -.29 2.211zm1.985 0a13.219 13.219 0 0 1 .259-1.787 13 13 0 0 1 25.665 1.787h-4.018a9 9 0 0 0 -17.888 0zm12.962 11a10.013 10.013 0 0 1 -9.949-9h1.949a1 1 0 0 0 1-1 7 7 0 0 1 14 0 1 1 0 0 0 1 1h1.949a10.013 10.013 0 0 1 -9.949 9z"/></g></svg>