<?xml version="1.0" encoding="iso-8859-1"?>
<!-- Generator: Adobe Illustrator 19.0.0, SVG Export Plug-In . SVG Version: 6.00 Build 0)  -->
<svg version="1.1" id="Capa_1" xmlns="http://www.w3.org/2000/svg" xmlns:xlink="http://www.w3.org/1999/xlink" x="0px" y="0px"
	 viewBox="0 0 512 512" style="enable-background:new 0 0 512 512;" xml:space="preserve">
<g>
	<path style="fill:#006DF0;" d="M235.676,298.805l-36.085-45.419c-53.993-67.994-64.88-70.91-145.615-39.026L0.009,235.667
		l45.419-36.085c67.985-53.993,70.901-64.88,39.035-145.624L63.146,0l36.085,45.419c53.985,67.985,64.88,70.893,145.615,39.026
		l53.967-21.307l-45.419,36.085c-67.985,53.993-70.901,64.88-39.035,145.624L235.676,298.805z M124.394,177.516
		c21.653,0,38.345,9.222,58.531,29.934c-11.378-40.355-5.495-62.301,24.534-91.562c-40.355,11.378-62.292,5.495-91.562-24.534
		c11.378,40.355,5.495,62.301-24.534,91.562C102.069,179.621,113.188,177.801,124.394,177.516z"/>
	<path style="fill:#006DF0;" d="M248.823,512l-36.076-45.427c-33.005-41.571-37.896-42.891-87.292-23.395l-53.959,21.307
		l45.419-36.085c41.58-33.022,42.891-37.913,23.395-87.292l-21.299-53.967l36.076,45.427c33.005,41.571,37.896,42.891,87.292,23.395
		l53.959-21.307l-45.419,36.085c-41.58,33.022-42.891,37.913-23.395,87.292L248.823,512z M168.45,413.908
		c11.482,0.069,22.515,4.486,30.874,12.353c-3.52-15.045,0.733-30.857,11.335-42.106c-15.036,3.537-30.848-0.699-42.106-11.275
		c3.537,15.045-0.707,30.848-11.292,42.106C160.945,414.296,164.689,413.934,168.45,413.908z"/>
</g>
<path style="fill:#78B9EB;" d="M464.477,322.217l-36.076-45.427c-33.005-41.563-37.905-42.9-87.292-23.395l-53.959,21.307
	l45.419-36.085c41.58-33.022,42.891-37.913,23.395-87.292l-21.299-53.967l36.076,45.427c33.005,41.571,37.896,42.9,87.292,23.395
	l53.959-21.307l-45.419,36.085c-41.58,33.022-42.891,37.913-23.395,87.292L464.477,322.217z M384.112,224.125
	c11.482,0.069,22.515,4.486,30.874,12.353c-3.52-15.045,0.733-30.857,11.335-42.106c-15.036,3.537-30.848-0.699-42.106-11.275
	c3.537,15.045-0.707,30.848-11.292,42.106C376.607,224.513,380.351,224.151,384.112,224.125z"/>
<g>
</g>
<g>
</g>
<g>
</g>
<g>
</g>
<g>
</g>
<g>
</g>
<g>
</g>
<g>
</g>
<g>
</g>
<g>
</g>
<g>
</g>
<g>
</g>
<g>
</g>
<g>
</g>
<g>
</g>
</svg>
