<svg height="512" viewBox="0 0 60 54" width="512" xmlns="http://www.w3.org/2000/svg"><g id="043---Wet-Floor" fill="none"><g id="Icons" transform="translate(0 1)"><path id="Shape" d="m54.54 52h-49.08c-1.60615099-.0213706-3.08035547-.8933624-3.87264163-2.2906671s-.78366713-3.1100727.02264163-4.4993329l24.54-42.96c.7852191-1.38719615 2.2559855-2.24471663 3.85-2.24471663s3.0647809.85752048 3.85 2.24471663l24.54 42.96c.8063088 1.3892602.8149278 3.1020282.0226416 4.4993329-.7922861 1.3973047-2.2664906 2.2692965-3.8726416 2.2906671z" fill="#fec108"/><path id="Shape" d="m51.54 52h-46.08c-1.60615099-.0213706-3.08035547-.8933624-3.87264163-2.2906671s-.78366713-3.1100727.02264163-4.4993329l24.54-42.96c.5122694-.92728946 1.3492415-1.63248294 2.35-1.98 1.0007585.34751706 1.8377306 1.05271054 2.35 1.98l24.54 42.96c.8063088 1.3892602.8149278 3.1020282.0226416 4.4993329-.7922861 1.3973047-2.2664906 2.2692965-3.8726416 2.2906671z" fill="#ffdc00"/><path id="Shape" d="m44.95 28.55c-.1206137-.518533-.4423053-.9678998-.8942852-1.2492151-.4519799-.2813152-.9972118-.3715274-1.5157148-.2507849l-5.8 1.36c-1.982.477-1.488.38-1.59.38-1.724 1-.243.141-6.93 4.04l-2.37-2.83c3.857 0 3.283.187 7.23-3.76.7814829-.7814829.7814829-2.0485171 0-2.83s-2.0485171-.7814829-2.83 0l-2.59 2.59h-4.43c.8957553-.9954086 1.0233282-2.4639445.3126397-3.5989061-.7106885-1.1349615-2.0875174-1.6614735-3.3741618-1.2903104-1.2866443.3711631-2.1714932 1.5501098-2.1684779 2.8892165-.0074987 1.3455278.891405 2.5276477 2.19 2.88-.629.419.037-.034-4.45 3.038-1.0888571.74562-1.73988 1.9803187-1.74 3.3v3.782c.0000427.5611829.2358534 1.0965305.649871 1.4753651.4140176.3788347.9681481.5662996 1.527129.5166349 1.0577818-.1291746 1.8457514-1.038603 1.823-2.104v-3.668l2.11-1.45 5.333 6.4c.7191077.8600261 1.7661157 1.3788139 2.886 1.43l5.331.248 5.62 3.99c.5948472.3965648 1.3560735.4456586 1.9969323.1287882s1.0639885-.9515648 1.11-1.665c.0460116-.7134352-.2920851-1.3972234-.8869323-1.7937882-5.266-3.752-3.877-2.756-6.49-4.61-1.374-.063-.538-.024-3.8-.18 5.535-3.224 5.37-3.18 5.47-3.18l6.78-1.59c1.0723594-.2525235 1.738568-1.3247168 1.49-2.398z" fill="#607d8b"/></g><g id="Layer_2" fill="#000" transform="translate(-1)"><path id="Shape" d="m60.261 45.718-24.543-42.962c-.9599682-1.70292925-2.7631325-2.75638875-4.718-2.75638875s-3.7580318 1.0534595-4.718 2.75638875l-24.543 42.962c-.98306303 1.6983683-.9901744 3.7910508-.01867676 5.4960611.97149765 1.7050103 2.77541746 2.7657856 4.73767676 2.7859389h49.084c1.9622593-.0201533 3.7661791-1.0809286 4.7376768-2.7859389.9714976-1.7050103.9643862-3.7976928-.0186768-5.4960611zm-4.719 6.282h-49.084c-1.24905664-.0207995-2.39345883-.70224-3.00690375-1.7904773-.61344493-1.0882373-.60396677-2.4201261.02490375-3.4995227l24.542-42.962c.6041156-1.07975946 1.7447304-1.74859807 2.982-1.74859807s2.3778844.66883861 2.982 1.74859807l24.542 42.962c.6295226 1.0793111.6393266 2.4115444.0257567 3.5000035-.61357 1.088459-1.7584356 1.7697992-3.0077567 1.7899965z"/><path id="Shape" d="m45.584 27.452c-.6771554-.4225949-1.4948033-.5579098-2.272-.376l-7.328 1.724c-.26.045.22-.2-6.539 3.737l-.462-.552c1.211914-.0787255 2.35449-.593009 3.217-1.448l2.591-2.59c.5615691-.5641223.8759268-1.3282958.8738637-2.1242792s-.3203778-1.5585171-.8848637-2.1197208c-1.1839566-1.1329684-3.0500434-1.1329684-4.234 0l-2.3 2.3h-2.388c.4952007-1.8937328-.4564491-3.8670444-2.2466636-4.6586122s-3.8902806-.1676142-4.9578555 1.4730355-.7873663 3.8134541.6615191 5.1295767l-3.136 2.149c-1.3652557.9282842-2.1814655 2.4730522-2.179 4.124v3.78c.0006126.8415213.3546402 1.6440948.9757127 2.2119217.6210726.5678269 1.4520802.8486934 2.2902873.7740783 1.5721813-.1748235 2.7550113-1.5142681 2.734-3.096v-3.144l.925-.636 4.748 5.7c.9010306 1.073597 2.2099359 1.7215233 3.61 1.787l5.037.236 5.38 3.82c.5073767.3640165 1.1165518.5589106 1.741.557 1.3256206-.0051586 2.4912587-.8783482 2.8688352-2.1490695.3775766-1.2707213-.1221185-2.6387408-1.2298352-3.3669305-7.248-5.166-6.471-4.767-7.443-4.812l2.4-1.4 6.646-1.558c1.1782127-.2809179 2.0728579-1.2413197 2.2696464-2.4364658.1967885-1.1951462-.3427021-2.3916877-1.3686464-3.0355342zm-23.584-4.452c1.1045695 0 2 .8954305 2 2s-.8954305 2-2 2-2-.8954305-2-2 .8954305-2 2-2zm22.231 7.977c-7.438 1.723-6.885 1.6-7.064 1.7l-5.46 3.179c-.383759.2225228-.5750505.6712695-.4698552 1.1022235s.4817303.741095.9248552.7617765l3.508.167 6.248 4.437c.4481314.2917339.6215521.8634736.411 1.355-.1366719.2544302-.3759155.4380135-.6570477.5041847-.2811322.0661713-.5771436.0085732-.8129523-.1581847-5.987-4.265-5.734-4.154-6.152-4.173l-5.332-.25c-.8402788-.0384182-1.6261159-.4268037-2.167-1.071l-5.33-6.4c-.330368-.3973195-.9090377-.4775097-1.335-.185l-2.109 1.454c-.2703805.1856265-.432553.4920355-.434.82v3.67c.0159438.5452634-.3768596 1.0169704-.916 1.1-.2777122.0234164-.5525976-.0701227-.7583872-.258067-.2057895-.1879443-.3238113-.4532411-.3256128-.731933v-3.78c-.0029594-.9893007.4837791-1.9159759 1.3-2.475 3.16-2.155 3.981-2.721 4.082-2.807 1.1652849.1974658 2.3569583-.1479574 3.236-.938h4.042c.2651948-.0000566.5195073-.1054506.707-.293l2.591-2.59c.3951416-.3839221 1.0253241-.3794685 1.415.01.3850802.3895663.3850802 1.0164337 0 1.406-3.66 3.667-2.927 3.467-6.523 3.467-.3884988-.0001148-.7419038.2247914-.9063234.5767822-.1644196.3519909-.1100929.767354.1393234 1.0652178l2.371 2.83c.3127625.3734386.8490989.4671919 1.27.222l6.8-3.962 7.246-1.708c.3488698-.0830642.7155531.0263011.9619238.2868991s.3349992.6328377.2325.9765-.380554.6065367-.7294238.6896009z"/><path id="Shape" d="m29.143 47.963c-.6774006.1446363-1.3744095-.1392422-1.758-.716-.4134106-.5989856-.9923141-1.0646103-1.666-1.34-1.557-.626-2.2.1-3.126-.265-.3139505-.131436-.5828794-.3513739-.774-.633-.3170114-.4523212-.9406788-.5620114-1.393-.245s-.5620114.9406788-.245 1.393c.413764.5990575.9930067 1.0646755 1.667 1.34 1.493.6 2.239-.088 3.125.266.3100648.1289353.5763707.3445493.767.621.8401709 1.242333 2.3505022 1.8501058 3.817 1.536.5404106-.1143229.8858229-.6450894.7715-1.1855s-.6450894-.8858229-1.1855-.7715z"/><path id="Shape" d="m36.793 45.963c-.6771292.1447735-1.3739289-.1391813-1.757-.716-.4143179-.5985423-.9933908-1.0640238-1.667-1.34-1.584-.637-2.181.111-3.125-.265-.3141821-.1305613-.5832539-.3502686-.774-.632-.3186123-.446557-.9374952-.5530738-1.3870672-.23873-.449572.3143437-.5619796.9321839-.2519328 1.38473.4133344.6012003.9934849 1.0683797 1.669 1.344 1.542.62 2.21-.1 3.125.266.3100355.1289844.5763287.3445882.767.621.8401709 1.242333 2.3505022 1.8501058 3.817 1.536.5404106-.1143229.8858229-.6450894.7715-1.1855s-.6450894-.8858229-1.1855-.7715z"/></g></g></svg>