<svg height="479pt" viewBox="0 0 479.99457 479" width="479pt" xmlns="http://www.w3.org/2000/svg"><path d="m128 200.496094c.015625-1.445313.148438-2.890625.398438-4.320313-.109376.101563-.25.160157-.398438.160157zm0 0" fill="#ffcd00"/><path d="m177.121094 209.296875c-.371094-.066406-.746094-.09375-1.121094-.078125v7.277344c0-2.441406.378906-4.871094 1.121094-7.199219zm0 0" fill="#ffcd00"/><path d="m64 68.65625c-22.660156 15.125-34.828125 41.753906-31.441406 68.785156 3.386718 27.03125 21.75 49.828125 47.441406 58.894532v-75.839844c0-13.253906 10.746094-24 24-24s24 10.746094 24 24v75.839844c.148438 0 .289062-.058594.398438-.160157 2.054687-11.414062 12.003906-19.710937 23.601562-19.679687 1.722656-.015625 3.441406.171875 5.121094.5625 24.4375-26.890625 25.011718-67.78125 1.332031-95.34375s-64.183594-33.164063-94.453125-13.058594zm0 0" fill="#00d7df"/><path d="m225.359375 225.699219-1.359375-.5625v8.722656c.003906-2.777344.460938-5.535156 1.359375-8.160156zm0 0" fill="#ffcd00"/><path d="m80 196.335938c-25.691406-9.066407-44.054688-31.863282-47.441406-58.894532-3.386719-27.03125 8.78125-53.660156 31.441406-68.785156v-20.160156h-56v160h72zm0 0" fill="#f1f2f2"/><path d="m448 152.496094h-16c13.253906 0 24-10.742188 24-24 0-13.253906-10.746094-24-24-24h-16c13.253906 0 24-10.742188 24-24 0-13.253906-10.746094-24-24-24h-17.359375c12.921875.277344 23.90625-9.386719 25.28125-22.238282.488281-6.652343-1.8125-13.203124-6.351563-18.089843-4.535156-4.886719-10.902343-7.667969-17.570312-7.671875h-62.398438c-38.035156 0-75.695312 7.53125-110.800781 22.160156l-25.039062 10.480469c-11.71875 4.859375-24.277344 7.363281-36.960938 7.359375h-20.800781v20.160156c17.457031 11.652344 28.957031 30.347656 31.476562 51.183594 2.523438 20.839844-4.183593 41.738281-18.355468 57.21875 4.492187.964844 8.605468 3.214844 11.839844 6.480468 4.507812 4.492188 7.039062 10.59375 7.039062 16.957032v8.722656c.375-.015625.75.011719 1.121094.078125 3.570312-11.277344 14.828125-18.269531 26.523437-16.476563 11.691407 1.796876 20.332031 11.847657 20.355469 23.675782v8.640625l1.359375.5625c2.816406-9.433594 11.078125-16.210938 20.878906-17.121094 6.652344-.488281 13.207031 1.808594 18.09375 6.347656 4.886719 4.539063 7.664063 10.902344 7.667969 17.570313v8.402344c21.5 5.050781 43.511719 7.601562 65.601562 7.597656h54.398438c17.652344-.050782 31.949219-14.347656 32-32v-16h24c13.253906 0 24-10.742188 24-24 0-13.253906-10.746094-24-24-24zm0 0" fill="#f1f2f2"/><path d="m264.960938 215.539062c-4.914063-4.960937-11.761719-7.507812-18.722657-6.960937-9.800781.910156-18.0625 7.6875-20.878906 17.121094-.898437 2.625-1.355469 5.382812-1.359375 8.160156v-17.363281c0-13.253906-10.746094-24-24-24s-24 10.746094-24 24v-16c0-6.363282-2.53125-12.464844-7.039062-16.957032-3.234376-3.265624-7.347657-5.515624-11.839844-6.480468-1.679688-.390625-3.398438-.578125-5.121094-.5625-11.597656-.03125-21.546875 8.265625-23.601562 19.679687-.25 1.429688-.382813 2.875-.398438 4.320313v-80c0-13.253906-10.746094-24-24-24s-24 10.746094-24 24v88h-16c-17.652344.054687-31.949219 14.351562-32 32v54.402344c-.003906 38.035156 7.53125 75.691406 22.160156 110.800781l10.480469 25.039062c4.859375 11.714844 7.359375 24.273438 7.359375 36.960938v4.796875h160c-.007812-14.242188 2.484375-28.375 7.359375-41.757813l10.480469-25.039062c14.628906-35.109375 22.164062-72.765625 22.160156-110.800781v-62.402344c0-6.363282-2.53125-12.464844-7.039062-16.957032zm0 0" fill="#e6e7e8"/><path d="m104 56.496094c14.246094-.019532 28.175781 4.214844 40 12.160156v-36.160156h-80v36.160156c11.824219-7.945312 25.753906-12.179688 40-12.160156zm0 0" fill="#898890"/><path d="m458.503906 146.410156c5.570313-8.207031 6.996094-18.542968 3.859375-27.953125-3.136719-9.410156-10.480469-16.824219-19.859375-20.046875 5.597656-8.246094 7.007813-18.636718 3.816406-28.078125-3.191406-9.441406-10.621093-16.84375-20.074218-20.003906 3.265625-4.527344 5.21875-9.867187 5.648437-15.429687.667969-8.878907-2.390625-17.632813-8.441406-24.160157-6.054687-6.527343-14.550781-10.238281-23.453125-10.242187h-62.398438c-39.101562-.035156-77.820312 7.707031-113.898437 22.777344l-25.015625 10.472656c-10.738281 4.46875-22.257812 6.765625-33.886719 6.75h-12.800781v-8c0-4.417969-3.582031-8-8-8h-80c-4.417969 0-8 3.582031-8 8v8h-48c-4.417969 0-8 3.582031-8 8v160c0 4.417968 3.582031 8 8 8h24.296875c-5.304687 6.882812-8.191406 15.316406-8.226563 24v54.402344c-.039062 39.089843 7.699219 77.796874 22.769532 113.863281l10.480468 25.015625c4.472657 10.75 6.765626 22.277344 6.75 33.921875v4.796875c0 2.105468.835938 4.121094 2.320313 5.609375 1.488281 1.488281 3.507813 2.320312 5.609375 2.320312h160c2.101562 0 4.121094-.832031 5.609375-2.320312 1.484375-1.488281 2.320313-3.503907 2.320313-5.609375.007812-13.1875 2.289062-26.277344 6.742187-38.695313l10.496094-25.054687c15.066406-36.0625 22.800781-74.765625 22.761719-113.847656v-44.21875c18.984374 3.828124 38.300781 5.777343 57.671874 5.816406h54.398438c22.082031-.023438 39.972656-17.917969 40-40v-8h16c15.601562.039062 28.945312-11.210938 31.546875-26.59375 2.601563-15.382813-6.296875-30.394532-21.042969-35.492188zm-304.800781 22.277344c-.574219 0-1.070313-.191406-1.679687-.191406-5.617188-.003906-11.132813 1.46875-16 4.273437v-52.273437c0-17.671875-14.328126-32-32-32-17.671876 0-32 14.328125-32 32v63.273437c-19.152344-11.023437-31.242188-31.164062-31.964844-53.25-.71875-22.089843 10.035156-42.976562 28.429687-55.222656 18.746094-12.28125 42.5-14.035156 62.847657-4.640625 2.859374 1.332031 5.609374 2.882812 8.222656 4.640625 14.972656 9.964844 25.042968 25.789063 27.730468 43.570313 2.6875 17.785156-2.253906 35.875-13.609374 49.820312zm-81.703125-128.191406h64v14.671875c-20.40625-8.894531-43.59375-8.894531-64 0zm-56 16h40v8.21875c-22.371094 16.71875-34.363281 43.929687-31.609375 71.722656 2.753906 27.796875 19.847656 52.125 45.066406 64.132812l-53.457031-.074218zm248.070312 238.402344c.039063 36.988281-7.285156 73.613281-21.542968 107.742187l-10.488282 25.058594c-4.417968 11.828125-7.015624 24.261719-7.695312 36.871093h-144.464844c-.363281-12.679687-3.050781-25.1875-7.925781-36.898437l-10.472656-25.015625c-14.265625-34.132812-21.589844-70.765625-21.550781-107.757812v-54.402344c.027343-13 10.378906-23.628906 23.375-24h.695312c.121094 0 .222656-.0625.351562-.070313h7.648438l.070312 96.070313c0 4.378906 3.550782 7.929687 7.929688 7.929687s7.929688-3.550781 7.929688-7.929687l.070312-192c0-8.835938 7.164062-16 16-16s16 7.164062 16 16v152c0 4.417968 3.582031 8 8 8s8-3.582032 8-8c0 0 .121094-73.992188.273438-74.910156.824218-4.25 3.320312-7.992188 6.933593-10.378907 3.609375-2.390625 8.03125-3.222656 12.265625-2.316406 2.972656.640625 5.695313 2.136719 7.832032 4.304687 3.011718 2.988282 4.703124 7.058594 4.695312 11.300782v72c0 4.417968 3.582031 8 8 8s8-3.582032 8-8c0 0 .257812-59.253906.761719-60.796875 2.394531-7.5 9.886719-12.140625 17.667969-10.945313 7.78125 1.195313 13.535156 7.871094 13.570312 15.742188v56c0 4.417968 3.582031 8 8 8s8-3.582032 8-8c0 0 .3125-42.292969.742188-43.71875v-.089844c.058593-.183594.082031-.359375.136718-.542969 1.828125-6.371093 7.355469-10.988281 13.953125-11.648437 4.660157-.386719 9.25 1.324218 12.519531 4.664062 3.027344 2.996094 4.726563 7.078125 4.71875 11.335938zm183.929688-102.402344h-112c-4.417969 0-8 3.582031-8 8 0 4.417968 3.582031 8 8 8h80v8c0 13.257812-10.746094 24-24 24h-54.398438c-19.386718-.035156-38.714843-2.097656-57.671874-6.144532v-1.855468c-.007813-8.867188-3.699219-17.335938-10.199219-23.375-6.496094-6.035156-15.210938-9.101563-24.058594-8.457032-5.570313.417969-10.921875 2.355469-15.472656 5.601563-3.140625-9.472656-10.539063-16.921875-19.988281-20.125-9.449219-3.203125-19.855469-1.789063-28.105469 3.820313-1.542969-4.558594-4.109375-8.707032-7.496094-12.128907-1.503906-1.464843-3.148437-2.785156-4.90625-3.933593 24.542969-35.210938 16.707031-83.542969-17.703125-109.191407v-8.210937h12.800781c13.730469.003906 27.324219-2.714844 40-8l25.03125-10.488282c34.140625-14.246093 70.773438-21.558593 107.769531-21.511718h62.398438c4.449219.007812 8.695312 1.863281 11.722656 5.128906 3.023438 3.265625 4.550782 7.644531 4.214844 12.082031-1.117188 8.636719-8.589844 15.03125-17.296875 14.789063h-22.640625c-4.417969 0-8 3.582031-8 8 0 4.417968 3.582031 8 8 8h40c8.835938 0 16 7.164062 16 16 0 8.835937-7.164062 16-16 16h-40c-4.417969 0-8 3.582031-8 8 0 4.417968 3.582031 8 8 8h56c8.835938 0 16 7.164062 16 16 0 8.835937-7.164062 16-16 16h-56c-4.417969 0-8 3.582031-8 8 0 4.417968 3.582031 8 8 8h72c8.835938 0 16 7.164062 16 16 0 8.835937-7.164062 16-16 16zm0 0" fill="#231f20"/></svg>