<svg height="512" viewBox="0 0 60 56" width="512" xmlns="http://www.w3.org/2000/svg"><g id="006---Nuclear-Hazard" fill="none"><g id="Icons" transform="translate(1 1)"><path id="Shape" d="m54.74 54h-51.48c-2.52 0-4.08-3-2.8-5.3 27.45-50.14 25.82-47.36 26.54-47.96.7324093-.61503317 1.7064412-.8601741 2.642732-.66511351.9362908.19506058 1.7313952.80877158 2.157268 1.66511351l25.74 47c1.28 2.26-.28 5.26-2.8 5.26z" fill="#37474f"/><path id="Shape" d="m50.74 54h-47.48c-2.52 0-4.08-3-2.8-5.3 27.45-50.14 25.82-47.36 26.54-47.96.71.6-1.06-2.45 26.54 48 1.28 2.26-.28 5.26-2.8 5.26z" fill="#607d8b"/><path id="Shape" d="m53.69 50h-49.38l24.69-45.06z" fill="#fdd834"/><path id="Shape" d="m50.69 50h-46.38l23.19-42.32z" fill="#ffeb3a"/><g fill="#607d8b"><path id="Shape" d="m32 36c0 1.6568542-1.3431458 3-3 3s-3-1.3431458-3-3 1.3431458-3 3-3 3 1.3431458 3 3z"/><path id="Shape" d="m34.5 45.52c-3.4034118 1.9649607-7.5965882 1.9649607-11 0l4-6.93c.9282032.5358984 2.0717968.5358984 3 0z"/><path id="Shape" d="m27.5 33.4c-.9287987.5362419-1.5006876 1.527516-1.5 2.6h-8c.0022425-3.9276779 2.0985303-7.5561614 5.5-9.52z"/><path id="Shape" d="m40.0000006 36h-8.0000006c.0006876-1.072484-.5712013-2.0637581-1.5-2.6l4-6.93c3.4045633 1.9656252 5.5013295 5.5987493 5.5000006 9.53z"/></g></g><g id="Layer_2" fill="#000" transform="translate(0 -1)"><path id="Shape" d="m4.26 57h51.48c3.28 0 5.33-3.77 3.68-6.78l-25.74-47c-.7100381-1.37767623-2.1301142-2.24337141-3.68-2.24337141s-2.9699619.86569518-3.68 2.24337141l-25.74 47c-1.64 2.99.42 6.78 3.68 6.78zm-1.92-5.82 25.74-47c.3600969-.73155371 1.1046224-1.19490741 1.92-1.19490741s1.5599031.4633537 1.92 1.19490741l25.74 47c.91 1.65-.14 3.82-1.92 3.82h-51.48c-1.79 0-2.83-2.18-1.92-3.82z"/><path id="Shape" d="m5.31 53h49.38c.3536572.0009667.6815233-.1849387.8622694-.4889209.1807462-.3039822.187488-.6808263.0177306-.9910791l-24.69-45.06c-.1745653-.3234232-.5124736-.52502632-.88-.52502632s-.7054347.20160312-.88.52502632l-24.69 45.06c-.16975741.3102528-.16301561.6870969.01773056.9910791s.50861224.4898876.86226944.4889209zm24.69-44 23 42h-46z"/><path id="Shape" d="m36 27.6c-.2305237-.133545-.5048063-.1695837-.7620037-.1001217-.2571973.0694621-.4760451.238682-.6079963.4701217l-3.57 6.18c-.6871094-.1899835-1.4128906-.1899835-2.1 0-.1 0 .19.39-3.6-6.16-.1285481-.2321493-.3440971-.4036858-.5991798-.4768345s-.5287802-.0419109-.7608202.0868345c-3.7151949 2.1449676-6.0027505 6.110064-6 10.4 0 .5522847.4477153 1 1 1 7.57 0 7.11-.06 7.14 0 .1860364.6868827.551951 1.3116992 1.06 1.81l-3.57 6.19c-.1400143.232262-.1796889.5114315-.109928.773506.0697608.2620745.2429738.4845761.479928.616494 3.7128129 2.1435935 8.2871871 2.1435935 12 0 .2369542-.1319179.4101672-.3544195.479928-.616494.0697609-.2620745.0300863-.541244-.109928-.773506l-3.57-6.17c.5257107-.4924043.8944399-1.1289839 1.06-1.83h7.14c.5522847 0 1-.4477153 1-1 .0027505-4.289936-2.2848051-8.2550324-6-10.4zm-6 8.4c.9054014-.0009287 1.6984961.6065041 1.9335042 1.4808746s-.1466955 1.7975585-.9305641 2.2506618c-.7838686.4531032-1.7743587.3230907-2.4147389-.3169606-.6403803-.6400514-.7709017-1.6304745-.3182012-2.4145758.356899-.6181681 1.0162016-.9992679 1.73-1zm-5.84-6.11 3 5.28c-.5134233.4957596-.868374 1.1325829-1.02 1.83h-6.09c.2859743-2.8527789 1.7826671-5.4455896 4.11-7.12zm10 17.23c-2.6133445 1.1781954-5.6066555 1.1781954-8.22 0l3-5.26c.7000944.1943581 1.4399056.1943581 2.14 0zm-.29-10.12c-.1822781-.7022981-.5521471-1.3417912-1.07-1.85l3-5.27c2.3613421 1.6565277 3.8923824 4.2520056 4.2 7.12z"/></g></g></svg>