<svg id="Layer_35" enable-background="new 0 0 64 64" height="512" viewBox="0 0 64 64" width="512" xmlns="http://www.w3.org/2000/svg"><path d="m34.92 11.85.36 1.14c.19.63.34 1.27.44 1.91v.01l-4.16-2.56c-.25-.16-.53-.26-.82-.31-.13-.03-.27-.04-.4-.04-1.29 0-2.34 1.05-2.34 2.34v.39c0 .79.4 1.53 1.07 1.96l6.79 4.4-.01.01c-.06 1.2-.17 2.39-.34 3.57-.41 2.88-1.15 5.7-2.21 8.41l-2.69 6.9c-.52 1.22-1.38 2.22-2.44 2.92s-2.33 1.1-3.65 1.1c-3.66 0-6.63-2.97-6.63-6.63v-6.05c0-1.69-.37-3.34-1.05-4.85-.68-1.5-1.68-2.87-2.95-3.98-.82-.71-1.53-1.53-2.11-2.43-1.17-1.79-1.72-3.92-1.77-6.06v-.11c-.05-1.65.18-3.32.84-4.83.89-2.08 2.37-3.84 4.23-5.09 1.86-1.24 4.1-1.97 6.51-1.97 6.12 0 11.53 4 13.33 9.85z" fill="#ecc19c"/><path d="m52 20h-1-5.3c-1.11 0-2.2-.31-3.15-.89l-6.83-4.2-4.16-2.56c-.25-.16-.53-.26-.82-.31-.13-.03-.27-.04-.4-.04-1.29 0-2.34 1.05-2.34 2.34v.39c0 .79.4 1.53 1.07 1.96l6.79 4.4 6.4 4.14c1.71 1.1 2.74 3 2.74 5.03v8.74 20c0 .83.34 1.58.88 2.12s1.29.88 2.12.88c1.66 0 3-1.34 3-3 0 1.66 1.34 3 3 3 .83 0 1.58-.34 2.12-.88s.88-1.29.88-2.12v-17h1c2.21 0 4-1.79 4-4v-8c0-5.52-4.48-10-10-10z" fill="#e6e9ed"/><circle cx="51" cy="14" fill="#e6e9ed" r="6"/><path d="m28.028 38.356 2.481-6.369c.97-2.489 1.654-5.094 2.032-7.741.101-.709.181-1.423.238-2.14l-1.993-.16c-.054.676-.129 1.349-.225 2.017-.356 2.496-1.001 4.951-1.916 7.298l-2.481 6.369z"/><path d="m24.132 38.953-.479 1.941c.283.071.575.106.868.106.729 0 1.433-.216 2.037-.625l-1.122-1.656c-.38.259-.863.343-1.304.234z"/><path d="m55.304 19.509c1.638-1.283 2.696-3.273 2.696-5.509 0-3.859-3.14-7-7-7s-7 3.141-7 7c0 1.958.81 3.728 2.111 5h-.412c-.925 0-1.831-.257-2.621-.741l-6.463-3.977c-.103-.534-.225-1.065-.385-1.581l-.352-1.144c-1.942-6.315-7.686-10.557-14.292-10.557-5.071 0-9.647 3.009-11.658 7.664-.664 1.537-.975 3.304-.922 5.251l.003.111c.065 2.459.732 4.733 1.93 6.579.638.981 1.407 1.87 2.289 2.642 2.329 2.037 3.665 4.981 3.665 8.077v6.047c0 4.207 3.422 7.629 7.629 7.629 3.056 0 5.809-1.814 7.024-4.654l2.69-6.906c1.081-2.774 1.843-5.678 2.265-8.628.093-.652.167-1.312.227-1.973l4.988 3.227c1.43.925 2.284 2.495 2.284 4.198v28.736c0 2.206 1.794 4 4 4 1.2 0 2.266-.542 3-1.382.734.84 1.8 1.382 3 1.382 2.206 0 4-1.794 4-4v-16c2.757 0 5-2.243 5-5v-8c0-4.914-3.24-9.085-7.696-10.491zm-9.304-5.509c0-2.757 2.243-5 5-5s5 2.243 5 5-2.243 5-5 5-5-2.243-5-5zm-11.479 10.528c-.4 2.799-1.123 5.553-2.148 8.185l-2.678 6.876c-.888 2.072-2.919 3.411-5.174 3.411-3.104 0-5.629-2.525-5.629-5.629v-6.047c0-3.673-1.585-7.165-4.348-9.582-.742-.65-1.391-1.399-1.928-2.227-.997-1.535-1.553-3.452-1.608-5.542l-.003-.111c-.044-1.655.211-3.137.759-4.405 1.694-3.923 5.55-6.457 9.822-6.457 5.723 0 10.699 3.675 12.381 9.145l.193.626-2.072-1.275c-.202-.124-.418-.219-.639-.297-1.814-3.78-5.628-6.199-9.863-6.199-3.474 0-6.608 2.061-7.986 5.25-.432.999-.632 2.196-.596 3.559l.003.112c.046 1.722.491 3.279 1.287 4.507.437.673.964 1.281 1.568 1.81 3.11 2.721 4.942 6.651 5.027 10.783l2-.041c-.097-4.693-2.178-9.157-5.71-12.247-.464-.407-.871-.876-1.208-1.394-.595-.918-.929-2.118-.965-3.471l-.003-.112c-.028-1.069.117-1.982.433-2.713 1.061-2.456 3.475-4.043 6.15-4.043 3.135 0 5.99 1.62 7.601 4.217-1.273.471-2.187 1.686-2.187 3.121v.39c0 1.137.57 2.185 1.524 2.804l6.287 4.068c-.06.979-.152 1.962-.29 2.928zm26.479 13.472c0 1.654-1.346 3-3 3v-13h-2v31c0 1.103-.897 2-2 2s-2-.897-2-2v-20h-2v20c0 1.103-.897 2-2 2s-2-.897-2-2v-28.736c0-2.385-1.195-4.582-3.197-5.877l-13.191-8.534c-.383-.249-.612-.669-.612-1.125v-.39c0-.737.601-1.338 1.338-1.338.248 0 .49.068.701.198l10.991 6.764c1.105.68 2.373 1.038 3.668 1.038h5.302 1c4.962 0 9 4.037 9 9z"/><path d="m1 22h6v2h-6z"/><path d="m2.608 28h6v2h-6z" transform="matrix(.866 -.5 .5 .866 -13.747 6.687)"/><path d="m4.608 14h2v6h-2z" transform="matrix(.5 -.866 .866 .5 -11.919 13.356)"/></svg>