<svg height="512" viewBox="0 0 64 64" width="512" xmlns="http://www.w3.org/2000/svg"><g id="Tools-2" data-name="Tools"><path d="m39.778 19.219h.003v8.004h-.003z" fill="#ffb655" transform="matrix(.707 -.707 .707 .707 -4.769 34.929)"/><path d="m48.99 9.806a10 10 0 0 0 -5.11-2.734l-14.708-2.942-1.415 1.414 9.179 4.589a4 4 0 0 1 1.039 6.406l-2.439 2.44 1.412 1.413 5.66 5.66 1.413 1.412 2.828-2.828 2.122 2.121-.5 2.486a2 2 0 0 0 .547 1.807l2.072 2.071 9.9-9.9-2.07-2.071a2 2 0 0 0 -1.807-.547l-2.486.5-2.121-2.121 2.829-2.828z" fill="#2488ff"/><path d="m52.24 50 5.51 5.51a8.992 8.992 0 0 0 -9.19-12.81 3.982 3.982 0 0 1 -3.33-1.13l-22.8-22.8a3.982 3.982 0 0 1 -1.13-3.33 8.992 8.992 0 0 0 -12.81-9.19l5.51 5.51v4.24h-4.24l-5.51-5.51a8.992 8.992 0 0 0 9.19 12.81 3.982 3.982 0 0 1 3.33 1.13l22.8 22.8a3.982 3.982 0 0 1 1.13 3.33 8.992 8.992 0 0 0 12.81 9.19l-5.51-5.51v-4.24z" fill="#ffcd00"/><path d="m45.27 56a9.037 9.037 0 0 1 -2.57-7.44 3.982 3.982 0 0 0 -1.13-3.33l-22.8-22.8a3.982 3.982 0 0 0 -3.33-1.13 9.037 9.037 0 0 1 -7.44-2.57 8.934 8.934 0 0 1 -2.581-7.071l-1.169-1.169a8.992 8.992 0 0 0 9.19 12.81 3.982 3.982 0 0 1 3.33 1.13l22.8 22.8a3.982 3.982 0 0 1 1.13 3.33 8.992 8.992 0 0 0 12.81 9.19l-1.169-1.169a8.934 8.934 0 0 1 -7.071-2.581z" fill="#ddb200"/><path d="m30.5 26.84-5.66 5.66-19.35 19.35a4 4 0 0 0 5.66 5.66l19.35-19.35 5.66-5.66 6.448-6.448-5.66-5.66z" fill="#8b5e3c"/><path d="m40.95 20.393a2 2 0 0 1 0-2.828l1.025-1.026a4 4 0 0 0 -1.039-6.406l-9.179-4.589.748-.747-3.333-.667-1.415 1.414 9.179 4.589a4 4 0 0 1 1.039 6.406l-2.439 2.44 1.414 1.414 5.657 5.657 1.414 1.414 2-2z" fill="#006df0"/><path d="m7.494 53.849 31.456-31.456-2-2-31.456 31.456a3.974 3.974 0 0 0 1.191 6.466 3.991 3.991 0 0 1 .809-4.466z" fill="#754c29"/><path d="m48.313 31.757 2.072 2.071a1 1 0 0 0 1.414 0l9.9-9.9a1 1 0 0 0 0-1.414l-2.071-2.071a2.985 2.985 0 0 0 -2.71-.821l-1.961.392-1.037-1.035 2.122-2.121a1 1 0 0 0 0-1.414l-6.342-6.344a10.966 10.966 0 0 0 -5.621-3.009l-14.711-2.942a1 1 0 0 0 -.9.274l-1.418 1.414a1 1 0 0 0 .26 1.6l9.178 4.59a3 3 0 0 1 .781 4.805l-2.441 2.439a1 1 0 0 0 0 1.414l.706.706-5.034 5.035-7.367-7.367a2.973 2.973 0 0 1 -.84-2.5 9.991 9.991 0 0 0 -14.236-10.21 1 1 0 0 0 -.274 1.608l5.217 5.217v2.826h-2.826l-5.217-5.217a1 1 0 0 0 -1.608.274 9.991 9.991 0 0 0 10.212 14.235 2.971 2.971 0 0 1 2.5.845l7.365 7.363-18.643 18.643a5 5 0 0 0 7.074 7.074l18.643-18.643 8.367 8.367a2.976 2.976 0 0 1 .84 2.5 9.991 9.991 0 0 0 14.236 10.21 1 1 0 0 0 .274-1.608l-5.217-5.217v-2.826h2.826l5.217 5.217a1 1 0 0 0 1.608-.274 9.991 9.991 0 0 0 -10.213-14.235 2.969 2.969 0 0 1 -2.5-.845l-8.364-8.363 5.034-5.034.705.7a1 1 0 0 0 1.415 0l2.122-2.116 1.035 1.036-.392 1.96a3 3 0 0 0 .82 2.711zm-34.356-9.489a5.208 5.208 0 0 0 -.633.039 7.994 7.994 0 0 1 -8.683-10.007l4.412 4.411a1 1 0 0 0 .707.289h4.24a1 1 0 0 0 1-1v-4.24a1 1 0 0 0 -.293-.707l-4.407-4.412a7.994 7.994 0 0 1 10.011 8.678 4.953 4.953 0 0 0 1.416 4.158l7.363 7.363-4.25 4.246-7.359-7.359a4.924 4.924 0 0 0 -3.524-1.459zm34.719 21.425a7.993 7.993 0 0 1 8.682 10.012l-4.411-4.412a1 1 0 0 0 -.707-.293h-4.24a1 1 0 0 0 -1 1v4.24a1 1 0 0 0 .293.707l4.407 4.412a7.993 7.993 0 0 1 -10.011-8.678 4.959 4.959 0 0 0 -1.416-4.158l-8.359-8.363 4.246-4.246 8.359 8.358a4.956 4.956 0 0 0 4.157 1.421zm-38.233 13.107a3 3 0 0 1 -4.243-4.243l30.748-30.751 4.246 4.246zm37.114-32.871a1 1 0 0 0 -1.414 0l-2.12 2.119-7.072-7.071 1.732-1.73a5 5 0 0 0 -1.3-8.008l-7.938-3.969.055-.055 14.184 2.837a8.979 8.979 0 0 1 4.6 2.462l5.638 5.637-2.122 2.121a1 1 0 0 0 0 1.414l2.121 2.122a1 1 0 0 0 .9.273l2.487-.5a1 1 0 0 1 .9.273l1.364 1.365-8.485 8.485-1.364-1.364a1 1 0 0 1 -.274-.9l.5-2.485a1 1 0 0 0 -.273-.9z"/></g></svg>